<svg width="18" height="19" viewBox="0 0 18 19" fill="none" xmlns="http://www.w3.org/2000/svg">
<path fill-rule="evenodd" clip-rule="evenodd" d="M5.60982 0.843998C6.53845 0.801248 6.83453 0.791748 9.20003 0.791748C11.5655 0.791748 11.8616 0.80204 12.7894 0.843998C13.7173 0.885956 14.3506 1.034 14.9048 1.24854C15.4851 1.46783 16.0115 1.81062 16.4469 2.25396C16.8903 2.68858 17.2323 3.21425 17.4508 3.79533C17.6661 4.3495 17.8134 4.98283 17.8561 5.90908C17.8989 6.83929 17.9084 7.13537 17.9084 9.50008C17.9084 11.8656 17.8981 12.1617 17.8561 13.0903C17.8142 14.0165 17.6661 14.6499 17.4508 15.204C17.2323 15.7852 16.8897 16.3117 16.4469 16.747C16.0115 17.1903 15.4851 17.5323 14.9048 17.7508C14.3506 17.9662 13.7173 18.1134 12.791 18.1562C11.8616 18.1989 11.5655 18.2084 9.20003 18.2084C6.83453 18.2084 6.53845 18.1981 5.60982 18.1562C4.68357 18.1142 4.05024 17.9662 3.49607 17.7508C2.91493 17.5323 2.38839 17.1897 1.95312 16.747C1.51008 16.3121 1.16724 15.7858 0.948491 15.2048C0.733949 14.6507 0.586699 14.0173 0.543949 13.0911C0.501199 12.1609 0.491699 11.8648 0.491699 9.50008C0.491699 7.13458 0.501991 6.8385 0.543949 5.91066C0.585908 4.98283 0.733949 4.3495 0.948491 3.79533C1.16756 3.21431 1.51067 2.68804 1.95391 2.25316C2.38856 1.81023 2.91457 1.46739 3.49528 1.24854C4.04945 1.034 4.68278 0.886748 5.60903 0.843998H5.60982ZM12.719 2.4115C11.8007 2.36954 11.5252 2.36083 9.20003 2.36083C6.87491 2.36083 6.59941 2.36954 5.68107 2.4115C4.83162 2.45029 4.37087 2.592 4.0637 2.71154C3.65757 2.86987 3.36703 3.0575 3.06224 3.36229C2.77332 3.64337 2.55097 3.98555 2.41149 4.36375C2.29195 4.67091 2.15024 5.13166 2.11145 5.98112C2.06949 6.89946 2.06078 7.17496 2.06078 9.50008C2.06078 11.8252 2.06949 12.1007 2.11145 13.019C2.15024 13.8685 2.29195 14.3292 2.41149 14.6364C2.55082 15.014 2.77328 15.3568 3.06224 15.6379C3.34328 15.9268 3.68607 16.1493 4.0637 16.2886C4.37087 16.4082 4.83162 16.5499 5.68107 16.5887C6.59941 16.6306 6.87412 16.6393 9.20003 16.6393C11.5259 16.6393 11.8007 16.6306 12.719 16.5887C13.5684 16.5499 14.0292 16.4082 14.3364 16.2886C14.7425 16.1303 15.033 15.9427 15.3378 15.6379C15.6268 15.3568 15.8492 15.014 15.9886 14.6364C16.1081 14.3292 16.2498 13.8685 16.2886 13.019C16.3306 12.1007 16.3393 11.8252 16.3393 9.50008C16.3393 7.17496 16.3306 6.89946 16.2886 5.98112C16.2498 5.13166 16.1081 4.67091 15.9886 4.36375C15.8302 3.95762 15.6426 3.66708 15.3378 3.36229C15.0567 3.07339 14.7145 2.85104 14.3364 2.71154C14.0292 2.592 13.5684 2.45029 12.719 2.4115ZM8.08774 12.1846C8.70893 12.4432 9.40062 12.4781 10.0447 12.2834C10.6887 12.0886 11.2452 11.6763 11.6191 11.1169C11.9929 10.5574 12.1609 9.88552 12.0944 9.21596C12.0279 8.54639 11.731 7.92068 11.2544 7.44571C10.9506 7.14208 10.5832 6.9096 10.1788 6.76499C9.77435 6.62038 9.34287 6.56724 8.91542 6.6094C8.48798 6.65156 8.07519 6.78797 7.70679 7.00881C7.33839 7.22965 7.02354 7.52942 6.7849 7.88655C6.54626 8.24367 6.38977 8.64927 6.32669 9.07413C6.26362 9.499 6.29553 9.93256 6.42013 10.3436C6.54473 10.7547 6.75891 11.133 7.04727 11.4513C7.33563 11.7697 7.69098 12.0201 8.08774 12.1846ZM6.03495 6.335C6.45059 5.91935 6.94404 5.58965 7.4871 5.3647C8.03017 5.13976 8.61222 5.02398 9.20003 5.02398C9.78784 5.02398 10.3699 5.13975 10.913 5.3647C11.456 5.58965 11.9495 5.91935 12.3651 6.335C12.7808 6.75064 13.1105 7.24408 13.3354 7.78715C13.5604 8.33022 13.6761 8.91227 13.6761 9.50008C13.6761 10.0879 13.5604 10.6699 13.3354 11.213C13.1105 11.7561 12.7808 12.2495 12.3651 12.6652C11.5257 13.5046 10.3872 13.9762 9.20003 13.9762C8.0129 13.9762 6.87438 13.5046 6.03495 12.6652C5.19552 11.8257 4.72393 10.6872 4.72393 9.50008C4.72393 8.31294 5.19552 7.17443 6.03495 6.335ZM14.6689 5.69058C14.7719 5.59342 14.8543 5.47658 14.9114 5.34698C14.9684 5.21738 14.9988 5.07765 15.0009 4.93607C15.003 4.79449 14.9766 4.65393 14.9234 4.52272C14.8701 4.39151 14.7911 4.27232 14.691 4.1722C14.5909 4.07207 14.4717 3.99306 14.3405 3.93982C14.2093 3.88659 14.0687 3.86023 13.9271 3.86229C13.7855 3.86436 13.6458 3.89481 13.5162 3.95184C13.3866 4.00887 13.2698 4.09133 13.1726 4.19433C12.9837 4.39465 12.8802 4.66072 12.8842 4.93607C12.8882 5.21142 12.9994 5.47436 13.1941 5.66908C13.3888 5.8638 13.6518 5.97497 13.9271 5.97898C14.2025 5.983 14.4686 5.87954 14.6689 5.69058Z" fill="#4A4343"/>
</svg>
